<?xml version="1.0" standalone="no"?>
<!DOCTYPE svg PUBLIC "-//W3C//DTD SVG 20010904//EN"
 "http://www.w3.org/TR/2001/REC-SVG-20010904/DTD/svg10.dtd">
<svg version="1.0" xmlns="http://www.w3.org/2000/svg"
 width="1487.000000pt" height="1258.000000pt" viewBox="0 0 1487.000000 1258.000000"
 preserveAspectRatio="xMidYMid meet">

<g transform="translate(0.000000,1258.000000) scale(0.100000,-0.100000)"
fill="#ff0fbe" stroke="none">
<path d="M14227 12430 c-26 -16 -54 -30 -61 -30 -7 0 -29 -13 -49 -28 -20 -16
-57 -37 -84 -47 -26 -10 -52 -22 -57 -26 -14 -13 -26 -11 -26 3 0 6 -7 19 -16
29 -15 16 -20 17 -43 5 -14 -8 -35 -23 -45 -35 -29 -32 -46 -27 -46 14 0 45
-29 63 -63 40 -36 -23 -67 -63 -73 -95 -5 -23 -12 -29 -43 -33 -20 -2 -41 0
-47 5 -18 13 -39 0 -65 -42 -13 -21 -35 -45 -47 -52 -20 -11 -25 -10 -33 5 -7
12 -23 17 -59 17 -54 0 -56 3 -62 80 -4 50 -26 48 -81 -7 -62 -64 -97 -118
-97 -151 0 -38 -15 -57 -47 -59 -81 -7 -84 -8 -106 -54 -26 -52 -37 -62 -54
-48 -14 12 -47 -3 -62 -28 -8 -16 -11 -15 -36 1 -27 17 -28 17 -48 -2 -11 -11
-25 -42 -32 -69 -9 -34 -18 -49 -31 -51 -16 -2 -19 4 -19 45 0 42 -3 48 -22
51 -17 3 -31 -10 -65 -59 -24 -35 -61 -81 -82 -102 l-40 -40 -9 24 c-17 46
-24 54 -48 54 -21 0 -24 -7 -40 -94 -10 -55 -23 -99 -31 -105 -8 -6 -18 -21
-22 -33 -9 -27 -54 -57 -83 -55 -14 1 -27 -7 -34 -21 -7 -12 -22 -34 -35 -49
-12 -15 -25 -42 -29 -60 -8 -35 -22 -58 -35 -58 -5 0 -18 22 -31 50 -24 52
-43 67 -65 49 -9 -8 -12 -24 -7 -56 l6 -45 -29 6 c-25 6 -31 3 -41 -21 -7 -16
-18 -51 -24 -80 -11 -49 -13 -51 -32 -38 -29 20 -45 8 -52 -38 -4 -23 -10 -51
-13 -62 -2 -11 -7 -42 -9 -70 -3 -27 -11 -59 -19 -70 -12 -18 -12 -32 -3 -76
7 -30 12 -67 13 -84 1 -25 -3 -29 -24 -30 -20 0 -26 -6 -28 -28 -2 -15 -12
-31 -22 -37 -20 -11 -40 -59 -40 -97 0 -23 -2 -24 -59 -21 -33 1 -62 0 -65 -3
-3 -3 -9 -53 -12 -110 -5 -80 -3 -119 10 -167 9 -35 16 -73 16 -85 l0 -20 -23
21 c-13 12 -28 22 -34 22 -11 0 -23 -45 -23 -86 0 -28 -7 -30 -31 -8 -20 18
-39 11 -39 -15 0 -10 11 -51 23 -90 13 -40 20 -74 15 -77 -19 -12 -5 -56 37
-112 60 -80 58 -102 -6 -68 -17 9 -32 10 -43 4 -19 -11 -14 -38 20 -106 13
-25 21 -48 19 -50 -2 -3 -18 7 -35 22 -33 27 -55 33 -65 16 -4 -6 15 -47 40
-90 37 -63 45 -83 36 -94 -7 -8 -21 -12 -31 -9 -20 5 -50 -12 -50 -28 0 -5 26
-35 58 -67 32 -31 57 -63 55 -69 -3 -8 -24 -13 -59 -13 -50 0 -54 -2 -54 -23
0 -26 31 -73 98 -147 49 -55 51 -67 17 -80 -14 -5 -25 -16 -25 -23 0 -18 62
-87 77 -87 7 0 25 -11 42 -25 24 -21 30 -33 29 -66 0 -27 -7 -47 -18 -57 -21
-18 -17 -34 23 -84 21 -28 25 -38 13 -38 -23 0 -28 -17 -14 -42 7 -13 12 -26
13 -30 0 -3 11 -21 25 -40 14 -18 25 -46 25 -62 0 -23 9 -36 45 -61 41 -29 45
-36 46 -73 0 -47 22 -76 94 -124 79 -53 135 -128 95 -128 -8 0 -15 -6 -15 -14
0 -7 7 -19 15 -26 8 -7 15 -23 15 -36 0 -19 -5 -24 -25 -24 -19 0 -25 -5 -25
-22 0 -29 4 -35 68 -87 28 -23 52 -49 52 -56 0 -7 19 -37 42 -66 23 -29 42
-64 43 -78 0 -15 17 -38 43 -61 35 -31 42 -44 42 -74 0 -21 8 -56 19 -79 31
-72 34 -81 32 -120 -2 -21 4 -49 13 -62 9 -13 16 -31 16 -39 0 -7 7 -16 15
-20 25 -9 17 -25 -12 -23 -44 3 -42 -36 7 -118 22 -39 40 -80 40 -92 0 -13 16
-48 36 -79 39 -60 36 -82 -8 -60 -39 21 -51 2 -27 -43 20 -38 24 -67 10 -75
-4 -3 -23 -7 -40 -8 -18 -1 -36 -9 -41 -18 -7 -14 25 -140 50 -195 20 -43 16
-71 -11 -78 -20 -6 -21 -10 -14 -90 l7 -84 -27 -7 c-20 -5 -31 -2 -40 11 -15
21 -55 152 -55 181 0 37 -29 34 -55 -7 -40 -59 -46 -93 -52 -286 l-5 -180 25
-35 c42 -56 67 -107 67 -135 l0 -25 -130 0 c-117 0 -130 -2 -129 -17 1 -31 13
-51 64 -104 27 -28 50 -57 51 -65 4 -27 -34 -23 -102 10 -59 30 -71 33 -83 21
-12 -12 -12 -19 -2 -38 7 -13 11 -49 9 -87 -2 -54 -6 -65 -22 -68 -19 -4 -106
72 -106 93 0 6 -13 24 -30 40 -16 15 -32 42 -36 59 -3 17 -15 50 -25 73 -11
23 -19 47 -19 53 0 6 -12 10 -27 8 l-28 -3 -9 -120 c-8 -119 -7 -134 27 -307
13 -67 3 -93 -44 -121 -56 -32 -58 -25 -29 122 10 53 10 65 -1 72 -21 14 -58
1 -101 -32 -21 -17 -42 -28 -48 -24 -5 3 -10 44 -10 89 0 80 -1 85 -37 132
-48 62 -138 141 -193 167 -8 4 -26 14 -40 22 -31 18 -87 19 -92 3 -3 -7 8 -35
23 -63 29 -54 61 -153 79 -250 11 -57 10 -64 -18 -135 -46 -117 -61 -109 -107
54 -23 84 -43 109 -72 90 -17 -11 -113 -189 -113 -211 0 -7 -9 -13 -20 -13
-11 0 -20 5 -20 10 0 6 -7 10 -15 10 -25 0 -39 -53 -44 -157 -1 -14 -7 -23
-17 -23 -12 0 -15 6 -10 23 10 32 26 137 26 170 0 44 -34 34 -95 -28 -48 -50
-75 -67 -75 -48 0 9 41 61 84 107 31 32 36 43 31 67 -5 21 -3 29 8 29 7 0 22
9 32 20 15 16 15 22 5 35 -10 12 -41 15 -170 15 -114 0 -160 3 -167 13 -10 13
-39 128 -49 192 -16 112 -49 112 -98 2 -48 -107 -114 -217 -129 -217 -7 1 -24
19 -39 40 -15 22 -34 40 -42 40 -11 0 -13 9 -9 35 5 29 2 35 -12 35 -9 0 -30
-9 -45 -20 -37 -27 -110 -60 -132 -60 -25 0 -22 16 10 64 48 71 48 92 1 101
-55 11 -36 34 73 88 51 25 107 49 123 53 63 14 73 45 23 68 -56 24 -119 33
-220 31 l-97 -2 1 42 c0 23 -8 58 -20 81 -40 79 -73 83 -111 15 -34 -61 -117
-141 -147 -141 -29 0 -30 16 -4 50 41 53 12 76 -71 56 -31 -7 -60 -16 -66 -19
-43 -26 -2 73 49 121 24 22 24 22 127 7 56 -9 106 -13 111 -10 19 12 9 38 -27
74 -45 45 -166 131 -182 131 -7 0 -21 5 -33 11 -19 10 -18 13 21 50 31 30 63
47 131 69 49 17 99 30 110 30 16 0 20 7 20 30 0 25 -6 32 -47 50 -84 38 -149
50 -268 50 -105 0 -115 2 -115 18 0 26 129 148 182 172 26 12 65 20 99 20 88
0 101 40 28 83 -41 23 -37 50 12 84 23 15 88 73 145 129 79 76 104 107 104
126 0 15 -5 28 -12 30 -13 5 -126 -23 -146 -36 -15 -9 -144 -34 -240 -46 -41
-6 -113 -26 -162 -45 -48 -19 -95 -35 -105 -35 -10 0 -41 11 -70 25 -66 31
-174 53 -297 62 -94 6 -97 7 -108 34 -7 15 -9 32 -6 37 6 9 51 8 131 -3 45 -6
53 -1 107 65 56 71 100 177 139 338 20 82 -22 99 -68 27 -34 -51 -120 -111
-188 -130 -116 -32 -109 -33 -101 11 12 72 92 218 158 291 69 76 225 198 286
223 57 23 86 46 79 65 -10 24 -45 32 -127 29 -153 -6 -252 -35 -359 -108 -60
-41 -76 -40 -43 2 34 43 100 160 102 179 6 50 -18 62 -57 29 -68 -57 -152 -75
-173 -36 -8 15 -6 23 12 40 13 12 35 28 51 36 15 8 27 19 27 23 0 5 20 17 45
27 46 17 144 108 169 156 21 41 44 119 50 175 5 39 3 55 -9 67 -9 9 -19 16
-21 16 -3 0 -31 -17 -62 -39 -72 -48 -172 -101 -193 -101 -9 0 -42 -9 -75 -21
-69 -24 -184 -30 -208 -10 -9 8 -16 25 -16 40 0 20 9 31 40 49 30 17 40 29 40
47 0 14 -3 25 -7 25 -139 5 -223 20 -223 40 0 15 44 40 74 42 15 1 32 8 37 15
14 16 -4 50 -31 58 -45 14 -4 55 86 86 22 8 59 24 84 37 25 13 67 27 94 31
l49 6 14 69 c13 64 24 94 73 201 45 99 236 307 300 325 19 5 49 21 65 34 28
23 29 26 13 42 -38 39 -290 26 -378 -19 -44 -23 -53 -34 -86 -110 -37 -85
-202 -223 -303 -254 -68 -20 -71 -19 -56 25 7 20 11 48 10 62 -2 14 -4 28 -4
33 -2 15 -39 6 -75 -18 -73 -50 -126 -69 -126 -46 0 25 137 141 167 141 7 0
33 13 58 29 25 16 72 39 105 51 58 22 59 23 100 104 64 126 71 135 186 248 61
60 218 178 236 178 30 0 100 44 109 68 5 15 14 36 19 47 13 28 57 163 65 203
11 54 9 182 -3 194 -9 9 -30 -8 -84 -63 -69 -70 -182 -159 -204 -159 -5 0 -15
-9 -22 -20 -7 -11 -19 -20 -27 -20 -8 0 -47 -15 -87 -34 -129 -61 -285 -116
-328 -116 -11 0 -36 -21 -57 -47 -58 -73 -143 -155 -197 -191 -84 -55 -91 -44
-50 76 38 110 82 187 152 264 13 14 21 31 18 37 -27 43 -212 -56 -402 -216
-12 -10 -33 -52 -47 -94 -40 -121 -88 -206 -143 -251 -46 -38 -100 -68 -124
-68 -18 0 -11 29 13 52 12 12 37 43 55 68 31 44 32 48 32 145 -1 91 -16 184
-32 201 -12 11 -58 -6 -58 -22 0 -8 -11 -30 -24 -47 -13 -18 -31 -48 -39 -67
-14 -34 -117 -143 -154 -164 -10 -5 -34 -25 -53 -43 -48 -45 -64 -44 -55 5 4
20 13 55 21 77 21 61 18 85 -9 85 -13 0 -28 -5 -35 -12 -8 -8 -15 -9 -23 -1
-7 7 -3 36 13 97 27 101 21 123 -31 118 -39 -4 -39 8 -1 61 30 43 43 93 54
215 7 80 -7 88 -69 37 -25 -21 -48 -36 -50 -33 -2 2 17 27 43 54 96 102 114
125 138 172 23 43 29 71 53 232 13 88 29 156 45 194 26 63 48 213 36 254 -21
75 -62 94 -76 35 -4 -15 -15 -39 -25 -53 -9 -14 -29 -50 -43 -80 -34 -71 -49
-96 -73 -123 -11 -12 -28 -35 -38 -52 -41 -66 -129 -146 -202 -180 -39 -19
-75 -35 -80 -35 -4 0 -30 -11 -58 -25 -61 -30 -77 -31 -93 -5 -10 16 -9 27 3
56 17 42 132 159 169 174 25 9 36 43 19 53 -18 11 -227 -32 -301 -62 -68 -28
-85 -39 -109 -75 -47 -71 -145 -145 -177 -133 -13 5 -16 23 -16 100 0 57 6
111 15 136 8 22 12 41 9 41 -2 0 2 13 11 30 21 41 20 70 -5 70 -28 0 -153
-121 -189 -183 -16 -29 -46 -70 -65 -92 -20 -22 -36 -45 -36 -52 0 -17 -15
-16 -30 2 -7 8 -9 15 -4 15 4 0 3 5 -3 11 -7 7 -9 32 -6 65 5 50 4 54 -16 54
-11 0 -30 -9 -40 -19 -26 -26 -121 -91 -132 -91 -25 0 -15 37 41 151 l60 124
-1 95 c-1 52 -4 106 -8 120 -9 33 -34 37 -50 8 -64 -121 -191 -278 -225 -278
-19 0 -19 1 -21 183 -2 182 -10 188 -114 88 -28 -27 -51 -58 -51 -68 0 -25
-70 -200 -94 -235 -27 -40 -36 -35 -36 22 0 44 -3 50 -21 50 -11 0 -40 -15
-63 -34 -50 -42 -77 -37 -55 10 19 39 14 153 -7 161 -8 3 -38 -5 -66 -17 -45
-19 -57 -21 -89 -11 -74 22 -83 51 -48 154 12 34 21 80 20 102 -2 44 -30 157
-41 165 -4 3 -15 20 -24 38 -9 17 -23 32 -30 32 -8 0 -27 -24 -44 -52 -16 -30
-61 -81 -101 -117 l-72 -63 -67 7 c-37 4 -116 9 -175 10 -60 2 -111 6 -114 9
-3 3 6 10 21 16 15 5 26 16 24 23 -12 36 -183 75 -270 61 -42 -6 -51 8 -18 26
28 15 25 39 -6 50 -14 6 -78 10 -143 10 -131 0 -138 3 -145 61 -2 18 -9 36
-17 40 -25 12 -85 29 -102 29 -23 0 -31 18 -16 36 24 29 -6 39 -132 43 -114 3
-119 4 -104 21 26 29 -5 44 -99 47 -45 1 -82 3 -84 3 -1 0 2 9 7 19 16 30 -9
43 -77 39 -46 -2 -65 1 -79 15 -11 9 -24 17 -29 17 -5 0 -15 9 -22 20 -16 27
-63 19 -147 -23 -79 -40 -171 -51 -187 -23 -5 9 -16 16 -24 16 -27 0 -141 -70
-159 -97 -15 -23 -19 -24 -27 -10 -13 23 -23 21 -53 -10 -18 -21 -25 -24 -25
-12 0 9 -7 22 -15 29 -16 13 -36 -4 -103 -89 -35 -44 -52 -46 -52 -5 0 13 -4
24 -9 24 -13 0 -64 -50 -86 -83 -12 -19 -23 -26 -35 -22 -12 4 -25 -4 -39 -24
-12 -16 -21 -33 -21 -38 0 -21 -38 -43 -74 -43 -42 0 -83 -19 -139 -62 -44
-35 -67 -75 -67 -116 0 -33 12 -46 53 -56 23 -5 27 -12 27 -40 0 -29 -9 -43
-55 -87 -31 -29 -58 -64 -62 -78 -7 -27 -26 -51 -40 -51 -5 0 -22 -13 -37 -29
-29 -30 -43 -70 -55 -156 -4 -27 -12 -59 -17 -70 -31 -60 12 -219 62 -231 13
-3 48 -38 78 -78 57 -73 106 -112 132 -102 7 3 14 12 14 20 0 9 9 24 21 35 18
17 33 19 116 17 92 -3 95 -3 104 21 l9 25 31 -26 c17 -14 35 -26 39 -26 14 0
50 -42 44 -52 -8 -13 -40 -9 -54 7 -7 8 -21 15 -33 15 -18 0 -19 -4 -13 -50
l7 -50 -26 10 c-41 16 -45 13 -43 -30 1 -22 -2 -43 -5 -47 -4 -3 -27 15 -52
40 -25 26 -50 47 -55 47 -18 0 -11 -50 16 -116 17 -44 23 -69 16 -77 -17 -21
-22 -91 -9 -127 12 -34 40 -55 87 -64 17 -4 33 -19 46 -45 22 -44 83 -98 120
-107 15 -4 29 0 39 10 20 19 136 22 215 5 45 -10 59 -8 111 11 33 13 59 29 59
36 0 8 8 22 19 33 10 10 21 29 24 42 3 14 15 34 27 46 11 12 20 27 20 33 0 5
5 10 10 10 6 0 13 0 18 0 4 0 9 -26 12 -57 l5 -58 42 -3 c58 -4 68 -19 53 -82
-14 -57 -11 -64 28 -65 l27 0 3 -87 c2 -71 -1 -95 -17 -128 -32 -67 -13 -83
72 -59 44 12 60 5 48 -19 -50 -94 -65 -188 -33 -199 60 -21 43 -59 -47 -107
-87 -46 -191 -140 -191 -171 0 -18 6 -24 27 -27 45 -5 33 -30 -25 -53 -69 -26
-102 -55 -158 -137 -56 -80 -54 -100 8 -96 38 3 43 0 46 -20 2 -15 -11 -41
-37 -76 -28 -36 -44 -69 -51 -106 -14 -76 -13 -91 10 -97 24 -6 24 -13 0 -83
-11 -30 -19 -79 -20 -107 0 -47 2 -53 20 -53 11 0 25 10 31 23 11 24 57 62 65
54 3 -3 6 -47 7 -99 2 -87 3 -93 22 -90 61 10 59 11 67 -56 8 -73 21 -94 52
-86 26 6 40 -8 50 -50 4 -16 16 -41 27 -54 24 -31 24 -51 -1 -132 -11 -36 -23
-107 -27 -158 -3 -51 -11 -96 -17 -100 -6 -4 -45 -10 -86 -14 -41 -4 -104 -11
-139 -14 -85 -9 -190 11 -265 49 -32 17 -72 32 -88 34 -16 2 -38 7 -48 13 -10
5 -32 10 -49 10 -16 0 -36 6 -43 13 -50 47 -94 71 -142 75 -28 3 -62 13 -75
23 -12 10 -38 21 -55 25 -44 8 -149 106 -175 164 -12 25 -25 52 -30 60 -5 8
-14 34 -20 56 -15 58 -54 94 -101 94 -36 0 -38 2 -44 39 -8 50 -45 79 -113 87
-56 8 -67 15 -99 66 -14 21 -31 38 -39 38 -8 0 -25 15 -37 34 -13 19 -35 42
-49 50 -30 18 -107 21 -171 7 -125 -28 -150 -33 -188 -37 -74 -9 -332 -167
-315 -194 2 -4 64 -8 137 -9 133 -1 188 -11 220 -38 20 -18 52 -96 46 -113 -5
-15 -131 -56 -196 -63 -70 -8 -109 -33 -137 -88 -13 -25 -42 -62 -64 -82 -23
-20 -41 -42 -41 -47 0 -6 -12 -23 -26 -37 -15 -15 -41 -56 -57 -92 -25 -53
-32 -82 -35 -153 -5 -96 3 -106 43 -50 41 57 102 110 159 140 56 29 61 30 88
16 46 -24 101 -20 163 11 30 16 53 30 50 33 -8 8 36 42 63 49 33 8 87 -48 96
-99 6 -32 4 -38 -11 -39 -70 -2 -176 -19 -189 -30 -10 -8 -37 -43 -61 -79 -24
-36 -56 -83 -71 -105 -42 -61 -62 -131 -63 -226 -1 -86 6 -119 23 -119 16 0
37 26 53 68 9 22 34 57 57 77 38 36 42 38 117 39 67 1 83 5 117 29 49 33 57
33 88 2 14 -14 38 -28 54 -31 16 -3 36 -18 47 -35 58 -87 236 -135 350 -94 53
19 68 19 95 -5 39 -34 103 -58 167 -64 66 -5 106 -22 163 -67 19 -15 53 -31
75 -35 56 -10 105 -36 142 -77 18 -20 69 -53 120 -78 48 -23 90 -46 93 -50 3
-4 28 -13 55 -19 28 -6 67 -23 89 -38 21 -14 48 -27 60 -28 11 -1 28 -4 36 -8
8 -3 68 -10 133 -15 78 -6 126 -14 142 -25 32 -21 143 -21 193 0 20 8 61 18
91 20 30 3 63 10 72 15 10 5 35 9 56 9 21 1 49 7 63 15 14 8 38 14 54 15 21 0
46 16 92 58 108 98 165 143 176 136 6 -4 8 -22 4 -45 -5 -31 -3 -39 13 -44 21
-6 51 3 51 16 0 19 75 91 114 110 56 27 74 25 68 -6 -2 -14 -8 -25 -13 -25 -4
0 -16 -17 -25 -37 -10 -21 -39 -62 -66 -92 -95 -108 -135 -238 -117 -376 13
-98 17 -107 53 -103 27 3 32 8 37 38 10 58 24 83 79 139 l52 54 52 -12 c28 -6
68 -10 89 -8 l39 2 19 -75 c29 -111 30 -177 5 -217 -12 -18 -32 -49 -45 -70
-14 -23 -27 -63 -31 -100 -7 -57 -13 -68 -63 -125 -59 -68 -127 -164 -127
-180 0 -5 -48 -58 -107 -118 -103 -102 -121 -127 -184 -247 -15 -28 -41 -69
-58 -90 -31 -39 -71 -110 -71 -126 0 -5 -14 -28 -31 -52 -25 -35 -33 -60 -43
-128 -6 -47 -18 -93 -27 -104 -41 -49 -66 -112 -90 -232 -7 -39 -25 -82 -44
-111 -36 -53 -87 -157 -105 -215 -7 -22 -24 -54 -37 -71 -12 -17 -23 -38 -23
-47 0 -8 -9 -37 -21 -63 -29 -69 -35 -156 -15 -232 9 -35 13 -74 10 -87 -3
-13 1 -48 10 -79 16 -53 16 -56 -6 -93 -24 -39 -25 -50 -47 -318 -10 -119 -9
-136 10 -203 11 -40 39 -105 62 -145 23 -39 49 -85 57 -101 8 -16 41 -52 72
-80 l58 -50 -5 -106 c-10 -205 -11 -235 -3 -270 4 -19 16 -73 26 -120 32 -147
92 -241 210 -330 25 -18 39 -42 55 -90 12 -36 37 -89 56 -118 l33 -52 -27 -63
c-26 -58 -35 -93 -51 -205 -8 -51 -53 -92 -101 -92 -28 0 -88 -38 -146 -91
-14 -12 -43 -18 -113 -21 l-94 -4 -53 -52 c-51 -51 -54 -52 -111 -52 -72 0
-124 -27 -151 -77 -11 -19 -39 -49 -62 -66 -84 -60 -135 -173 -147 -327 -7
-81 6 -219 22 -229 18 -11 49 -76 56 -116 17 -95 54 -125 76 -61 14 44 77 116
101 116 15 0 19 -7 19 -40 0 -21 4 -49 9 -62 6 -13 12 -40 16 -60 5 -32 10
-38 30 -38 18 0 30 10 45 37 10 21 35 53 54 72 37 36 31 36 166 11 83 -15 220
-5 279 21 24 10 47 19 52 19 5 0 9 -34 9 -75 l0 -75 35 0 c29 0 39 6 59 38 54
84 77 95 136 66 27 -14 52 -16 154 -10 177 10 178 10 248 79 l62 61 116 1 c63
1 141 7 173 15 58 13 86 34 165 123 38 43 32 42 233 61 165 16 255 39 295 77
33 31 54 113 54 213 0 110 -15 175 -49 224 -39 53 -43 69 -47 201 -6 240 -21
317 -76 401 -28 43 -48 143 -48 243 0 53 4 98 9 101 4 3 15 25 24 48 9 24 22
57 28 73 7 17 14 44 16 60 2 17 7 39 12 50 5 11 13 47 19 80 6 33 17 91 26
129 23 96 8 209 -39 311 -19 41 -35 79 -35 84 0 6 -7 14 -16 19 -9 5 -18 28
-21 53 -7 57 -25 92 -77 148 -24 25 -61 71 -83 102 -55 74 -101 119 -135 131
-27 10 -36 32 -20 54 12 17 75 51 110 59 17 4 55 22 83 42 28 19 92 55 142 81
51 25 112 65 137 88 56 52 86 67 180 89 41 9 85 21 98 26 13 5 40 9 61 9 23 0
60 12 92 29 38 19 74 30 120 33 36 3 74 10 85 15 68 36 171 83 179 83 6 0 23
7 38 15 32 17 49 11 86 -29 14 -14 34 -26 46 -26 12 0 28 -12 38 -30 16 -26
78 -79 85 -72 5 5 102 -48 102 -56 0 -11 73 -52 92 -52 8 0 29 -11 48 -25 19
-14 41 -25 50 -25 9 0 39 -12 66 -26 27 -14 69 -32 94 -39 29 -10 55 -27 73
-50 23 -29 34 -35 65 -35 30 0 47 -8 82 -39 25 -22 56 -43 70 -46 14 -3 41
-17 61 -31 38 -26 137 -64 167 -64 10 0 38 -18 63 -40 32 -29 56 -41 89 -46
25 -3 59 -15 76 -25 17 -10 60 -26 95 -35 65 -16 148 -46 249 -89 31 -13 88
-27 130 -30 55 -5 85 -14 114 -32 29 -19 64 -29 130 -37 l90 -11 23 -40 c17
-30 22 -55 22 -100 -1 -75 20 -133 72 -201 22 -29 47 -74 55 -100 8 -27 33
-77 56 -113 22 -37 41 -71 41 -78 0 -7 6 -14 13 -17 7 -3 17 -30 24 -60 9 -46
19 -62 53 -91 111 -96 228 -150 304 -142 34 4 49 -1 75 -19 17 -13 39 -24 47
-24 8 0 22 -6 30 -14 9 -7 41 -21 71 -32 30 -10 60 -21 65 -25 6 -4 43 -10 83
-14 72 -7 73 -7 127 -64 94 -98 95 -100 95 -150 0 -59 23 -148 50 -197 37 -65
88 -142 99 -148 13 -9 15 -53 2 -61 -5 -3 -13 -20 -16 -38 -9 -38 -31 -72 -97
-146 -27 -31 -55 -76 -64 -103 -8 -26 -20 -50 -25 -53 -5 -4 -9 -13 -9 -22 0
-9 -13 -43 -29 -77 -16 -34 -37 -87 -47 -118 -15 -51 -16 -65 -5 -120 7 -35
19 -97 27 -138 31 -168 34 -171 99 -93 78 94 77 93 169 92 116 -1 257 19 279
39 10 9 28 37 39 62 11 25 34 60 49 78 16 18 29 37 29 43 0 17 27 39 49 39 20
0 21 -5 21 -107 0 -139 17 -178 93 -215 61 -30 111 -44 187 -53 70 -8 94 -25
153 -111 26 -38 54 -70 61 -72 18 -4 42 51 51 113 5 41 14 58 53 98 45 46 47
50 52 119 6 87 24 106 65 68 14 -13 30 -40 35 -61 12 -42 70 -106 115 -125 17
-6 73 -15 125 -19 141 -10 123 4 186 -145 13 -30 29 -55 36 -55 15 0 36 72 37
130 1 27 11 55 32 85 38 56 45 60 83 49 17 -5 56 -9 87 -9 64 0 80 -12 98 -75
7 -22 14 -46 16 -52 6 -20 32 -4 44 25 5 15 17 52 26 83 11 41 22 60 42 70 28
15 62 79 63 116 1 94 -63 280 -115 336 -15 15 -33 44 -41 65 -41 103 -59 131
-95 151 -20 12 -44 21 -53 21 -23 0 -134 81 -142 104 -3 10 -21 35 -38 55 -24
26 -36 53 -46 101 -17 88 -43 125 -112 158 -31 15 -62 37 -69 50 -7 12 -34 39
-60 59 -41 31 -50 44 -59 86 -13 60 -57 145 -83 159 -10 5 -26 26 -35 47 -10
20 -51 71 -92 114 -185 189 -184 188 -234 297 -9 19 -20 42 -25 50 -45 70 -61
124 -61 205 0 78 2 85 26 104 15 12 33 21 41 21 7 0 24 7 38 16 19 12 31 13
62 5 53 -15 133 -13 163 4 14 8 48 14 76 15 40 0 60 6 91 29 39 28 85 33 99
10 17 -29 113 4 151 51 15 19 29 26 42 23 10 -3 28 0 39 6 14 7 23 8 27 1 9
-14 84 -12 125 4 80 30 120 52 125 68 10 29 74 78 103 78 30 0 67 22 95 56 17
23 32 27 121 39 37 5 57 15 80 38 25 25 40 31 80 33 48 3 79 22 127 78 9 11
25 21 35 22 100 14 104 16 156 65 29 27 57 49 61 49 5 0 31 22 59 50 27 27 53
48 57 46 3 -2 15 7 26 21 48 60 106 110 142 124 14 5 27 18 30 29 3 11 9 20
13 20 4 0 11 11 14 24 3 14 16 26 31 30 28 7 75 54 75 75 0 25 112 224 150
265 21 23 45 57 54 77 12 26 29 40 65 56 56 23 92 67 116 140 9 29 21 55 26
58 5 4 9 13 9 22 0 9 15 32 34 53 25 28 36 51 41 87 3 28 16 65 28 84 24 38
57 133 57 164 0 11 9 37 20 58 12 21 28 66 36 100 9 34 25 88 35 119 10 32 19
68 19 81 0 13 11 37 25 53 14 16 28 40 31 54 3 14 10 36 16 50 6 14 14 84 19
155 4 72 13 182 19 245 15 154 4 591 -16 639 -18 43 -54 187 -54 215 0 41 -22
99 -47 124 -20 20 -27 40 -34 96 -4 39 -12 83 -18 98 -5 15 -7 42 -4 61 3 19
-2 72 -10 118 -9 46 -19 102 -22 123 -4 22 -20 66 -36 98 -16 31 -29 72 -29
90 0 23 -14 53 -45 98 -32 46 -45 75 -45 99 0 47 -14 87 -79 221 -64 132 -123
220 -210 310 -24 25 -52 63 -61 84 -10 22 -53 72 -96 112 -72 68 -80 82 -83
136 -1 9 -12 29 -24 45 -35 42 -80 128 -112 216 -15 43 -41 98 -56 123 -16 24
-29 48 -29 52 0 4 -9 18 -20 32 -13 17 -20 41 -20 76 0 47 -20 107 -39 119 -5
2 -9 51 -10 107 -2 80 -7 115 -25 162 -45 118 -66 286 -42 338 8 18 21 62 29
98 57 252 81 351 99 395 11 28 27 71 35 97 9 27 33 67 55 90 21 24 50 64 65
90 14 26 31 49 38 52 26 10 94 124 109 183 30 115 54 150 177 258 19 17 42 41
52 55 52 75 78 104 141 155 38 31 81 74 94 94 14 21 38 46 55 56 16 10 38 26
47 35 20 20 138 100 147 100 4 0 15 8 25 17 11 10 58 38 106 63 59 31 94 56
107 78 13 20 33 35 56 42 49 14 210 88 231 107 9 8 35 19 58 24 37 9 141 71
148 91 2 4 8 8 13 8 6 0 29 9 51 20 23 11 49 20 58 20 9 0 21 5 27 11 6 6 46
15 88 20 61 6 88 15 129 41 87 56 87 56 84 139 l-3 74 -33 3 c-30 3 -33 6 -28
28 9 35 -17 42 -73 20 -25 -10 -64 -20 -86 -22 -22 -2 -61 -7 -86 -10 l-46 -6
-9 43 c-5 26 -15 45 -24 47 -8 1 -37 -11 -63 -28z m-11167 -300 c0 -5 -5 -10
-11 -10 -5 0 -7 5 -4 10 3 6 8 10 11 10 2 0 4 -4 4 -10z m1955 -930 c3 -5 -1
-10 -9 -10 -9 0 -16 5 -16 10 0 6 4 10 9 10 6 0 13 -4 16 -10z m2916 -1823
c-13 -13 -26 -3 -16 12 3 6 11 8 17 5 6 -4 6 -10 -1 -17z m4109 -1438 c0 -6
-4 -7 -10 -4 -5 3 -10 11 -10 16 0 6 5 7 10 4 6 -3 10 -11 10 -16z"/>
</g>
</svg>
